<?xml version="1.0" encoding="UTF-8"?>
<svg id="logosandtypes_com" data-name="logosandtypes com" xmlns="http://www.w3.org/2000/svg" viewBox="0 0 150 150">
  <defs>
    <style>
      .cls-1 {
        fill: #0d0d0d;
        fill-rule: evenodd;
      }

      .cls-2 {
        fill: none;
      }
    </style>
  </defs>
  <path class="cls-2" d="M0,0H150V150H0V0Z"/>
  <path class="cls-1" d="M130.15,77.16c2.42-2.37,4.86-4.79,7.25-7.23,0-2.85,.02-29.85,.02-29.85l-25.71-25.93c-31.13,10.51-64.34,12.91-96.95,11.18,0,0-.02,3.71-.02,36.09l9.11,9.17c-4.2,2.73-8.43,5.4-12.7,8.02l-.02,29.81,25.73,25.96c34.52,2.27,69.79-.26,102.68-11.71v-36.06l-9.39-9.47Zm-.56,38.67c-27.62,8.05-54.9,10.16-82.78,9.04v-14.46c16.04-10.28,32.09-21.64,48.11-34.66-14.84,1.93-29.65,2.42-44.52,1.98v-15.99c25.89,.76,51.32-1.33,77.02-8.55l.02,.02v14.46c-16.04,15.42-32.09,28.87-48.11,40.88,16.77-1.14,33.5-3.82,50.27-8.71v15.99Z"/>
</svg>